<?xml version="1.0" standalone="no"?><!DOCTYPE svg PUBLIC "-//W3C//DTD SVG 1.1//EN" "http://www.w3.org/Graphics/SVG/1.1/DTD/svg11.dtd"><svg t="1768378496642" class="icon" viewBox="0 0 1024 1024" version="1.1" xmlns="http://www.w3.org/2000/svg" p-id="1704" xmlns:xlink="http://www.w3.org/1999/xlink" width="200" height="200"><path d="M768 96a32 32 0 0 1 31.488 26.24L800 128v615.936l113.536-46.272a32 32 0 0 1 29.312 56.576l-5.12 2.688-413.632 168.704a32 32 0 0 1-18.24 1.792l-5.952-1.792-414.4-168.704a32 32 0 0 1 18.56-60.992l5.568 1.728 114.304 46.528L224 128a32 32 0 0 1 26.24-31.488L256 96h512z m-32 63.936h-448v610.304L512 861.44l223.872-91.392 0.064-610.112zM514.176 279.488c16.576 0 30.016 13.44 30.016 29.952v13.696A102.592 102.592 0 0 1 619.52 421.888a30.016 30.016 0 0 1-60.032 0 42.432 42.432 0 1 0-42.368 42.368l2.304 0.192 3.84 0.256C573.888 469.248 613.76 512 613.76 563.84c0 43.328-27.84 80.32-66.624 93.952v22.208a30.016 30.016 0 1 1-60.032 0v-20.416A99.712 99.712 0 0 1 414.656 563.84a30.016 30.016 0 0 1 59.968 0 39.552 39.552 0 1 0 39.552-39.552l-2.944-0.256-3.52-0.192A102.528 102.528 0 0 1 414.72 421.888c0-44.992 29.12-83.2 69.44-96.96l0.064-15.488c0-16.512 13.44-29.952 30.08-29.952z" fill="#2c2c2c" p-id="1705"></path></svg>